<?xml version="1.0" encoding="UTF-8"?>
<svg xmlns="http://www.w3.org/2000/svg" xmlns:xlink="http://www.w3.org/1999/xlink" viewBox="0 0 64 64" width="64px" height="64px">
<g id="surface76353429">
<path style=" stroke:none;fill-rule:nonzero;fill:rgb(0%,69.803923%,34.509805%);fill-opacity:1;" d="M 16.75 4.5 C 13.148438 4.5 10.25 7.398438 10.25 11 L 10.25 51 C 10.25 54.601562 13.148438 57.5 16.75 57.5 L 47.25 57.5 C 50.851562 57.5 53.75 54.601562 53.75 51 L 53.75 11 C 53.75 7.398438 50.851562 4.5 47.25 4.5 Z M 16.75 7.5 L 47.25 7.5 C 49.199219 7.5 50.75 9.050781 50.75 11 L 50.75 51 C 50.75 52.949219 49.199219 54.5 47.25 54.5 L 16.75 54.5 C 14.800781 54.5 13.25 52.949219 13.25 51 L 13.25 11 C 13.25 9.050781 14.800781 7.5 16.75 7.5 Z M 16.75 11 L 16.75 18.5 L 47.25 18.5 L 47.25 11 Z M 18.75 25.5 C 17.898438 25.5 17.25 26.148438 17.25 27 C 17.25 27.851562 17.898438 28.5 18.75 28.5 L 44.25 28.5 C 45.101562 28.5 45.75 27.851562 45.75 27 C 45.75 26.148438 45.101562 25.5 44.25 25.5 Z M 18.75 33 C 17.898438 33 17.25 33.648438 17.25 34.5 C 17.25 35.351562 17.898438 36 18.75 36 L 44.25 36 C 45.101562 36 45.75 35.351562 45.75 34.5 C 45.75 33.648438 45.101562 33 44.25 33 Z M 18.75 40.5 C 17.898438 40.5 17.25 41.148438 17.25 42 C 17.25 42.851562 17.898438 43.5 18.75 43.5 L 32 43.5 C 32.851562 43.5 33.5 42.851562 33.5 42 C 33.5 41.148438 32.851562 40.5 32 40.5 Z M 18.75 40.5 "/>
</g>
</svg>
