<svg width="24" height="24" viewBox="0 0 24 24" fill="none" xmlns="http://www.w3.org/2000/svg">
<path d="M4.25 4C3.65326 4 3.08097 4.23705 2.65901 4.65901C2.23705 5.08097 2 5.65326 2 6.25V8.75C2 9.34674 2.23705 9.91903 2.65901 10.341C3.08097 10.7629 3.65326 11 4.25 11H6.75C7.34674 11 7.91903 10.7629 8.34099 10.341C8.76295 9.91903 9 9.34674 9 8.75V6.25C9 5.65326 8.76295 5.08097 8.34099 4.65901C7.91903 4.23705 7.34674 4 6.75 4H4.25ZM11.25 5C11.0511 5 10.8603 5.07902 10.7197 5.21967C10.579 5.36032 10.5 5.55109 10.5 5.75C10.5 5.94891 10.579 6.13968 10.7197 6.28033C10.8603 6.42098 11.0511 6.5 11.25 6.5H21.25C21.4489 6.5 21.6397 6.42098 21.7803 6.28033C21.921 6.13968 22 5.94891 22 5.75C22 5.55109 21.921 5.36032 21.7803 5.21967C21.6397 5.07902 21.4489 5 21.25 5H11.25ZM11.25 8C11.0511 8 10.8603 8.07902 10.7197 8.21967C10.579 8.36032 10.5 8.55109 10.5 8.75C10.5 8.94891 10.579 9.13968 10.7197 9.28033C10.8603 9.42098 11.0511 9.5 11.25 9.5H18.25C18.4489 9.5 18.6397 9.42098 18.7803 9.28033C18.921 9.13968 19 8.94891 19 8.75C19 8.55109 18.921 8.36032 18.7803 8.21967C18.6397 8.07902 18.4489 8 18.25 8H11.25ZM4.25 14C3.65326 14 3.08097 14.2371 2.65901 14.659C2.23705 15.081 2 15.6533 2 16.25V18.75C2 19.0455 2.0582 19.3381 2.17127 19.611C2.28434 19.884 2.45008 20.1321 2.65901 20.341C2.86794 20.5499 3.11598 20.7157 3.38896 20.8287C3.66194 20.9418 3.95453 21 4.25 21H6.75C7.04547 21 7.33806 20.9418 7.61104 20.8287C7.88402 20.7157 8.13206 20.5499 8.34099 20.341C8.54992 20.1321 8.71566 19.884 8.82873 19.611C8.9418 19.3381 9 19.0455 9 18.75V16.25C9 15.6533 8.76295 15.081 8.34099 14.659C7.91903 14.2371 7.34674 14 6.75 14H4.25ZM11.25 15C11.0511 15 10.8603 15.079 10.7197 15.2197C10.579 15.3603 10.5 15.5511 10.5 15.75C10.5 15.9489 10.579 16.1397 10.7197 16.2803C10.8603 16.421 11.0511 16.5 11.25 16.5H21.25C21.4489 16.5 21.6397 16.421 21.7803 16.2803C21.921 16.1397 22 15.9489 22 15.75C22 15.5511 21.921 15.3603 21.7803 15.2197C21.6397 15.079 21.4489 15 21.25 15H11.25ZM11.25 18C11.0511 18 10.8603 18.079 10.7197 18.2197C10.579 18.3603 10.5 18.5511 10.5 18.75C10.5 18.9489 10.579 19.1397 10.7197 19.2803C10.8603 19.421 11.0511 19.5 11.25 19.5H18.25C18.4489 19.5 18.6397 19.421 18.7803 19.2803C18.921 19.1397 19 18.9489 19 18.75C19 18.5511 18.921 18.3603 18.7803 18.2197C18.6397 18.079 18.4489 18 18.25 18H11.25Z" fill="#414042"/>
</svg>
